<svg xmlns="http://www.w3.org/2000/svg" xmlns:xlink="http://www.w3.org/1999/xlink" width="320" height="348" viewBox="0 0 240 261.48"><g id="graph0" class="graph" transform="scale(1 1) rotate(0) translate(4 257.475)"><title>graphviz</title><polygon fill="#666" stroke="none" points="-4 4 -4 -257.475 236 -257.475 236 4 -4 4"/><text x="116" y="-230.275" fill="#fff" font-family="Futura" font-size="24" text-anchor="middle">Graphviz</text><text x="116" y="-198.4" fill="#fff" font-family="Futura" font-size="24" text-anchor="middle">关系图脚本绘制工具</text><g id="node1" class="node"><title>prepare</title><polygon fill="#dfc1c1" stroke="#ddd" stroke-width=".5" points="212 -174 8 -174 8 -150 212 -150 224 -162 212 -174"/><text x="116" y="-161" font-family="Futura" font-size="10" text-anchor="middle">准备</text></g><g id="node2" class="node"><title>dot</title><polygon fill="#c1dfc1" stroke="#ddd" stroke-width=".5" points="212 -102 8 -102 8 -78 212 -78 224 -90 212 -102"/><text x="116" y="-89.149" font-family="Futura" font-size="10" text-anchor="middle">DOT语言</text></g><g id="edge1" class="edge"><title>prepare-&gt;dot</title><path fill="none" stroke="#ccc" stroke-dasharray="5 2" stroke-width=".75" d="M116,-143.697C116,-135.305 116,-125.07 116,-115.861"/><polygon fill="#ccc" stroke="#ccc" stroke-width=".75" points="116 -108.104 119.375 -115.604 116 -111.854 116 -115.604 116 -115.604 116 -115.604 116 -111.854 112.625 -115.604 116 -108.104 116 -108.104"/></g><g id="node3" class="node"><title>tpi</title><polygon fill="#c1c1df" stroke="#ddd" stroke-width=".5" points="212 -30 8 -30 8 -6 212 -6 224 -18 212 -30"/><text x="116" y="-17" font-family="Futura" font-size="10" text-anchor="middle">第三方集成</text></g><g id="edge2" class="edge"><title>dot-&gt;tpi</title><path fill="none" stroke="#ccc" stroke-dasharray="5 2" stroke-width=".75" d="M116,-71.6966C116,-63.3046 116,-53.0705 116,-43.8613"/><polygon fill="#ccc" stroke="#ccc" stroke-width=".75" points="116 -36.104 119.375 -43.604 116 -39.854 116 -43.604 116 -43.604 116 -43.604 116 -39.854 112.625 -43.604 116 -36.104 116 -36.104"/></g></g></svg>